<mxfile host="app.diagrams.net" modified="2021-10-29T19:23:00.477Z" agent="5.0 (Windows NT 10.0; Win64; x64) AppleWebKit/537.36 (KHTML, like Gecko) Chrome/95.0.4638.54 Safari/537.36" etag="cSX06VoQMSmySF57SMDr" version="15.6.2" type="github">
  <diagram id="DhaCiXlSeYsrRj2OYKmE" name="Page-1">
    <mxGraphModel dx="1422" dy="754" grid="1" gridSize="10" guides="1" tooltips="1" connect="1" arrows="1" fold="1" page="1" pageScale="1" pageWidth="850" pageHeight="1100" math="0" shadow="0">
      <root>
        <mxCell id="0" />
        <mxCell id="1" parent="0" />
        <mxCell id="tgRxwUmNWBEeA9mVB7pk-1" value="Branch" style="swimlane;fontStyle=0;childLayout=stackLayout;horizontal=1;startSize=26;horizontalStack=0;resizeParent=1;resizeParentMax=0;resizeLast=0;collapsible=1;marginBottom=0;align=center;fontSize=14;" vertex="1" parent="1">
          <mxGeometry x="40" y="40" width="160" height="116" as="geometry" />
        </mxCell>
        <mxCell id="tgRxwUmNWBEeA9mVB7pk-2" value="Item 1" style="text;strokeColor=none;fillColor=none;spacingLeft=4;spacingRight=4;overflow=hidden;rotatable=0;points=[[0,0.5],[1,0.5]];portConstraint=eastwest;fontSize=12;" vertex="1" parent="tgRxwUmNWBEeA9mVB7pk-1">
          <mxGeometry y="26" width="160" height="30" as="geometry" />
        </mxCell>
        <mxCell id="tgRxwUmNWBEeA9mVB7pk-3" value="Item 2" style="text;strokeColor=none;fillColor=none;spacingLeft=4;spacingRight=4;overflow=hidden;rotatable=0;points=[[0,0.5],[1,0.5]];portConstraint=eastwest;fontSize=12;" vertex="1" parent="tgRxwUmNWBEeA9mVB7pk-1">
          <mxGeometry y="56" width="160" height="30" as="geometry" />
        </mxCell>
        <mxCell id="tgRxwUmNWBEeA9mVB7pk-4" value="Item 3" style="text;strokeColor=none;fillColor=none;spacingLeft=4;spacingRight=4;overflow=hidden;rotatable=0;points=[[0,0.5],[1,0.5]];portConstraint=eastwest;fontSize=12;" vertex="1" parent="tgRxwUmNWBEeA9mVB7pk-1">
          <mxGeometry y="86" width="160" height="30" as="geometry" />
        </mxCell>
        <mxCell id="tgRxwUmNWBEeA9mVB7pk-5" value="Customer" style="swimlane;fontStyle=0;childLayout=stackLayout;horizontal=1;startSize=26;horizontalStack=0;resizeParent=1;resizeParentMax=0;resizeLast=0;collapsible=1;marginBottom=0;align=center;fontSize=14;" vertex="1" parent="1">
          <mxGeometry x="290" y="40" width="160" height="116" as="geometry" />
        </mxCell>
        <mxCell id="tgRxwUmNWBEeA9mVB7pk-6" value="Item 1" style="text;strokeColor=none;fillColor=none;spacingLeft=4;spacingRight=4;overflow=hidden;rotatable=0;points=[[0,0.5],[1,0.5]];portConstraint=eastwest;fontSize=12;" vertex="1" parent="tgRxwUmNWBEeA9mVB7pk-5">
          <mxGeometry y="26" width="160" height="30" as="geometry" />
        </mxCell>
        <mxCell id="tgRxwUmNWBEeA9mVB7pk-7" value="Item 2" style="text;strokeColor=none;fillColor=none;spacingLeft=4;spacingRight=4;overflow=hidden;rotatable=0;points=[[0,0.5],[1,0.5]];portConstraint=eastwest;fontSize=12;" vertex="1" parent="tgRxwUmNWBEeA9mVB7pk-5">
          <mxGeometry y="56" width="160" height="30" as="geometry" />
        </mxCell>
        <mxCell id="tgRxwUmNWBEeA9mVB7pk-8" value="Item 3" style="text;strokeColor=none;fillColor=none;spacingLeft=4;spacingRight=4;overflow=hidden;rotatable=0;points=[[0,0.5],[1,0.5]];portConstraint=eastwest;fontSize=12;" vertex="1" parent="tgRxwUmNWBEeA9mVB7pk-5">
          <mxGeometry y="86" width="160" height="30" as="geometry" />
        </mxCell>
        <mxCell id="tgRxwUmNWBEeA9mVB7pk-9" value="Booking" style="swimlane;fontStyle=0;childLayout=stackLayout;horizontal=1;startSize=26;horizontalStack=0;resizeParent=1;resizeParentMax=0;resizeLast=0;collapsible=1;marginBottom=0;align=center;fontSize=14;" vertex="1" parent="1">
          <mxGeometry x="560" y="40" width="160" height="116" as="geometry" />
        </mxCell>
        <mxCell id="tgRxwUmNWBEeA9mVB7pk-10" value="Item 1" style="text;strokeColor=none;fillColor=none;spacingLeft=4;spacingRight=4;overflow=hidden;rotatable=0;points=[[0,0.5],[1,0.5]];portConstraint=eastwest;fontSize=12;" vertex="1" parent="tgRxwUmNWBEeA9mVB7pk-9">
          <mxGeometry y="26" width="160" height="30" as="geometry" />
        </mxCell>
        <mxCell id="tgRxwUmNWBEeA9mVB7pk-11" value="Item 2" style="text;strokeColor=none;fillColor=none;spacingLeft=4;spacingRight=4;overflow=hidden;rotatable=0;points=[[0,0.5],[1,0.5]];portConstraint=eastwest;fontSize=12;" vertex="1" parent="tgRxwUmNWBEeA9mVB7pk-9">
          <mxGeometry y="56" width="160" height="30" as="geometry" />
        </mxCell>
        <mxCell id="tgRxwUmNWBEeA9mVB7pk-12" value="Item 3" style="text;strokeColor=none;fillColor=none;spacingLeft=4;spacingRight=4;overflow=hidden;rotatable=0;points=[[0,0.5],[1,0.5]];portConstraint=eastwest;fontSize=12;" vertex="1" parent="tgRxwUmNWBEeA9mVB7pk-9">
          <mxGeometry y="86" width="160" height="30" as="geometry" />
        </mxCell>
        <mxCell id="tgRxwUmNWBEeA9mVB7pk-28" value="" style="group" vertex="1" connectable="0" parent="1">
          <mxGeometry x="50" y="291" width="340" height="295" as="geometry" />
        </mxCell>
        <mxCell id="tgRxwUmNWBEeA9mVB7pk-13" value="Test" style="swimlane;fontStyle=0;childLayout=stackLayout;horizontal=1;startSize=26;horizontalStack=0;resizeParent=1;resizeParentMax=0;resizeLast=0;collapsible=1;marginBottom=0;align=center;fontSize=14;" vertex="1" parent="tgRxwUmNWBEeA9mVB7pk-28">
          <mxGeometry x="90" width="160" height="116" as="geometry" />
        </mxCell>
        <mxCell id="tgRxwUmNWBEeA9mVB7pk-14" value="Item 1" style="text;strokeColor=none;fillColor=none;spacingLeft=4;spacingRight=4;overflow=hidden;rotatable=0;points=[[0,0.5],[1,0.5]];portConstraint=eastwest;fontSize=12;" vertex="1" parent="tgRxwUmNWBEeA9mVB7pk-13">
          <mxGeometry y="26" width="160" height="30" as="geometry" />
        </mxCell>
        <mxCell id="tgRxwUmNWBEeA9mVB7pk-15" value="Item 2" style="text;strokeColor=none;fillColor=none;spacingLeft=4;spacingRight=4;overflow=hidden;rotatable=0;points=[[0,0.5],[1,0.5]];portConstraint=eastwest;fontSize=12;" vertex="1" parent="tgRxwUmNWBEeA9mVB7pk-13">
          <mxGeometry y="56" width="160" height="30" as="geometry" />
        </mxCell>
        <mxCell id="tgRxwUmNWBEeA9mVB7pk-16" value="Item 3" style="text;strokeColor=none;fillColor=none;spacingLeft=4;spacingRight=4;overflow=hidden;rotatable=0;points=[[0,0.5],[1,0.5]];portConstraint=eastwest;fontSize=12;" vertex="1" parent="tgRxwUmNWBEeA9mVB7pk-13">
          <mxGeometry y="86" width="160" height="30" as="geometry" />
        </mxCell>
        <mxCell id="tgRxwUmNWBEeA9mVB7pk-25" style="edgeStyle=orthogonalEdgeStyle;rounded=0;orthogonalLoop=1;jettySize=auto;html=1;" edge="1" parent="tgRxwUmNWBEeA9mVB7pk-28" source="tgRxwUmNWBEeA9mVB7pk-17" target="tgRxwUmNWBEeA9mVB7pk-13">
          <mxGeometry relative="1" as="geometry" />
        </mxCell>
        <mxCell id="tgRxwUmNWBEeA9mVB7pk-17" value="VisionTest" style="swimlane;fontStyle=0;childLayout=stackLayout;horizontal=1;startSize=26;horizontalStack=0;resizeParent=1;resizeParentMax=0;resizeLast=0;collapsible=1;marginBottom=0;align=center;fontSize=14;" vertex="1" parent="tgRxwUmNWBEeA9mVB7pk-28">
          <mxGeometry y="179" width="160" height="116" as="geometry" />
        </mxCell>
        <mxCell id="tgRxwUmNWBEeA9mVB7pk-18" value="Item 1" style="text;strokeColor=none;fillColor=none;spacingLeft=4;spacingRight=4;overflow=hidden;rotatable=0;points=[[0,0.5],[1,0.5]];portConstraint=eastwest;fontSize=12;" vertex="1" parent="tgRxwUmNWBEeA9mVB7pk-17">
          <mxGeometry y="26" width="160" height="30" as="geometry" />
        </mxCell>
        <mxCell id="tgRxwUmNWBEeA9mVB7pk-19" value="Item 2" style="text;strokeColor=none;fillColor=none;spacingLeft=4;spacingRight=4;overflow=hidden;rotatable=0;points=[[0,0.5],[1,0.5]];portConstraint=eastwest;fontSize=12;" vertex="1" parent="tgRxwUmNWBEeA9mVB7pk-17">
          <mxGeometry y="56" width="160" height="30" as="geometry" />
        </mxCell>
        <mxCell id="tgRxwUmNWBEeA9mVB7pk-20" value="Item 3" style="text;strokeColor=none;fillColor=none;spacingLeft=4;spacingRight=4;overflow=hidden;rotatable=0;points=[[0,0.5],[1,0.5]];portConstraint=eastwest;fontSize=12;" vertex="1" parent="tgRxwUmNWBEeA9mVB7pk-17">
          <mxGeometry y="86" width="160" height="30" as="geometry" />
        </mxCell>
        <mxCell id="tgRxwUmNWBEeA9mVB7pk-26" style="edgeStyle=orthogonalEdgeStyle;rounded=0;orthogonalLoop=1;jettySize=auto;html=1;" edge="1" parent="tgRxwUmNWBEeA9mVB7pk-28" source="tgRxwUmNWBEeA9mVB7pk-21" target="tgRxwUmNWBEeA9mVB7pk-13">
          <mxGeometry relative="1" as="geometry" />
        </mxCell>
        <mxCell id="tgRxwUmNWBEeA9mVB7pk-21" value="AudioTest" style="swimlane;fontStyle=0;childLayout=stackLayout;horizontal=1;startSize=26;horizontalStack=0;resizeParent=1;resizeParentMax=0;resizeLast=0;collapsible=1;marginBottom=0;align=center;fontSize=14;" vertex="1" parent="tgRxwUmNWBEeA9mVB7pk-28">
          <mxGeometry x="180" y="179" width="160" height="116" as="geometry" />
        </mxCell>
        <mxCell id="tgRxwUmNWBEeA9mVB7pk-22" value="Item 1" style="text;strokeColor=none;fillColor=none;spacingLeft=4;spacingRight=4;overflow=hidden;rotatable=0;points=[[0,0.5],[1,0.5]];portConstraint=eastwest;fontSize=12;" vertex="1" parent="tgRxwUmNWBEeA9mVB7pk-21">
          <mxGeometry y="26" width="160" height="30" as="geometry" />
        </mxCell>
        <mxCell id="tgRxwUmNWBEeA9mVB7pk-23" value="Item 2" style="text;strokeColor=none;fillColor=none;spacingLeft=4;spacingRight=4;overflow=hidden;rotatable=0;points=[[0,0.5],[1,0.5]];portConstraint=eastwest;fontSize=12;" vertex="1" parent="tgRxwUmNWBEeA9mVB7pk-21">
          <mxGeometry y="56" width="160" height="30" as="geometry" />
        </mxCell>
        <mxCell id="tgRxwUmNWBEeA9mVB7pk-24" value="Item 3" style="text;strokeColor=none;fillColor=none;spacingLeft=4;spacingRight=4;overflow=hidden;rotatable=0;points=[[0,0.5],[1,0.5]];portConstraint=eastwest;fontSize=12;" vertex="1" parent="tgRxwUmNWBEeA9mVB7pk-21">
          <mxGeometry y="86" width="160" height="30" as="geometry" />
        </mxCell>
        <mxCell id="tgRxwUmNWBEeA9mVB7pk-27" value="{mandatory, or}" style="text;html=1;strokeColor=none;fillColor=none;align=center;verticalAlign=middle;whiteSpace=wrap;rounded=0;" vertex="1" parent="tgRxwUmNWBEeA9mVB7pk-28">
          <mxGeometry x="170" y="116" width="100" height="30" as="geometry" />
        </mxCell>
        <mxCell id="tgRxwUmNWBEeA9mVB7pk-50" value="Order" style="swimlane;fontStyle=0;childLayout=stackLayout;horizontal=1;startSize=26;horizontalStack=0;resizeParent=1;resizeParentMax=0;resizeLast=0;collapsible=1;marginBottom=0;align=center;fontSize=14;" vertex="1" parent="1">
          <mxGeometry x="490" y="290" width="160" height="116" as="geometry" />
        </mxCell>
        <mxCell id="tgRxwUmNWBEeA9mVB7pk-51" value="Item 1" style="text;strokeColor=none;fillColor=none;spacingLeft=4;spacingRight=4;overflow=hidden;rotatable=0;points=[[0,0.5],[1,0.5]];portConstraint=eastwest;fontSize=12;" vertex="1" parent="tgRxwUmNWBEeA9mVB7pk-50">
          <mxGeometry y="26" width="160" height="30" as="geometry" />
        </mxCell>
        <mxCell id="tgRxwUmNWBEeA9mVB7pk-52" value="Item 2" style="text;strokeColor=none;fillColor=none;spacingLeft=4;spacingRight=4;overflow=hidden;rotatable=0;points=[[0,0.5],[1,0.5]];portConstraint=eastwest;fontSize=12;" vertex="1" parent="tgRxwUmNWBEeA9mVB7pk-50">
          <mxGeometry y="56" width="160" height="30" as="geometry" />
        </mxCell>
        <mxCell id="tgRxwUmNWBEeA9mVB7pk-53" value="Item 3" style="text;strokeColor=none;fillColor=none;spacingLeft=4;spacingRight=4;overflow=hidden;rotatable=0;points=[[0,0.5],[1,0.5]];portConstraint=eastwest;fontSize=12;" vertex="1" parent="tgRxwUmNWBEeA9mVB7pk-50">
          <mxGeometry y="86" width="160" height="30" as="geometry" />
        </mxCell>
        <mxCell id="tgRxwUmNWBEeA9mVB7pk-71" value="" style="group" vertex="1" connectable="0" parent="1">
          <mxGeometry x="85" y="680" width="525" height="306" as="geometry" />
        </mxCell>
        <mxCell id="tgRxwUmNWBEeA9mVB7pk-29" value="Staff" style="swimlane;fontStyle=0;childLayout=stackLayout;horizontal=1;startSize=26;horizontalStack=0;resizeParent=1;resizeParentMax=0;resizeLast=0;collapsible=1;marginBottom=0;align=center;fontSize=14;" vertex="1" parent="tgRxwUmNWBEeA9mVB7pk-71">
          <mxGeometry x="180" width="160" height="116" as="geometry" />
        </mxCell>
        <mxCell id="tgRxwUmNWBEeA9mVB7pk-30" value="Item 1" style="text;strokeColor=none;fillColor=none;spacingLeft=4;spacingRight=4;overflow=hidden;rotatable=0;points=[[0,0.5],[1,0.5]];portConstraint=eastwest;fontSize=12;" vertex="1" parent="tgRxwUmNWBEeA9mVB7pk-29">
          <mxGeometry y="26" width="160" height="30" as="geometry" />
        </mxCell>
        <mxCell id="tgRxwUmNWBEeA9mVB7pk-31" value="Item 2" style="text;strokeColor=none;fillColor=none;spacingLeft=4;spacingRight=4;overflow=hidden;rotatable=0;points=[[0,0.5],[1,0.5]];portConstraint=eastwest;fontSize=12;" vertex="1" parent="tgRxwUmNWBEeA9mVB7pk-29">
          <mxGeometry y="56" width="160" height="30" as="geometry" />
        </mxCell>
        <mxCell id="tgRxwUmNWBEeA9mVB7pk-32" value="Item 3" style="text;strokeColor=none;fillColor=none;spacingLeft=4;spacingRight=4;overflow=hidden;rotatable=0;points=[[0,0.5],[1,0.5]];portConstraint=eastwest;fontSize=12;" vertex="1" parent="tgRxwUmNWBEeA9mVB7pk-29">
          <mxGeometry y="86" width="160" height="30" as="geometry" />
        </mxCell>
        <mxCell id="tgRxwUmNWBEeA9mVB7pk-47" style="edgeStyle=orthogonalEdgeStyle;rounded=0;orthogonalLoop=1;jettySize=auto;html=1;" edge="1" parent="tgRxwUmNWBEeA9mVB7pk-71" source="tgRxwUmNWBEeA9mVB7pk-33" target="tgRxwUmNWBEeA9mVB7pk-29">
          <mxGeometry relative="1" as="geometry">
            <Array as="points">
              <mxPoint x="445" y="160" />
              <mxPoint x="260" y="160" />
            </Array>
          </mxGeometry>
        </mxCell>
        <mxCell id="tgRxwUmNWBEeA9mVB7pk-33" value="SalesAssistant" style="swimlane;fontStyle=0;childLayout=stackLayout;horizontal=1;startSize=26;horizontalStack=0;resizeParent=1;resizeParentMax=0;resizeLast=0;collapsible=1;marginBottom=0;align=center;fontSize=14;" vertex="1" parent="tgRxwUmNWBEeA9mVB7pk-71">
          <mxGeometry x="365" y="190" width="160" height="116" as="geometry" />
        </mxCell>
        <mxCell id="tgRxwUmNWBEeA9mVB7pk-34" value="Item 1" style="text;strokeColor=none;fillColor=none;spacingLeft=4;spacingRight=4;overflow=hidden;rotatable=0;points=[[0,0.5],[1,0.5]];portConstraint=eastwest;fontSize=12;" vertex="1" parent="tgRxwUmNWBEeA9mVB7pk-33">
          <mxGeometry y="26" width="160" height="30" as="geometry" />
        </mxCell>
        <mxCell id="tgRxwUmNWBEeA9mVB7pk-35" value="Item 2" style="text;strokeColor=none;fillColor=none;spacingLeft=4;spacingRight=4;overflow=hidden;rotatable=0;points=[[0,0.5],[1,0.5]];portConstraint=eastwest;fontSize=12;" vertex="1" parent="tgRxwUmNWBEeA9mVB7pk-33">
          <mxGeometry y="56" width="160" height="30" as="geometry" />
        </mxCell>
        <mxCell id="tgRxwUmNWBEeA9mVB7pk-36" value="Item 3" style="text;strokeColor=none;fillColor=none;spacingLeft=4;spacingRight=4;overflow=hidden;rotatable=0;points=[[0,0.5],[1,0.5]];portConstraint=eastwest;fontSize=12;" vertex="1" parent="tgRxwUmNWBEeA9mVB7pk-33">
          <mxGeometry y="86" width="160" height="30" as="geometry" />
        </mxCell>
        <mxCell id="tgRxwUmNWBEeA9mVB7pk-46" style="edgeStyle=orthogonalEdgeStyle;rounded=0;orthogonalLoop=1;jettySize=auto;html=1;" edge="1" parent="tgRxwUmNWBEeA9mVB7pk-71" source="tgRxwUmNWBEeA9mVB7pk-37" target="tgRxwUmNWBEeA9mVB7pk-29">
          <mxGeometry relative="1" as="geometry" />
        </mxCell>
        <mxCell id="tgRxwUmNWBEeA9mVB7pk-37" value="Audiologist" style="swimlane;fontStyle=0;childLayout=stackLayout;horizontal=1;startSize=26;horizontalStack=0;resizeParent=1;resizeParentMax=0;resizeLast=0;collapsible=1;marginBottom=0;align=center;fontSize=14;" vertex="1" parent="tgRxwUmNWBEeA9mVB7pk-71">
          <mxGeometry x="180" y="190" width="160" height="116" as="geometry" />
        </mxCell>
        <mxCell id="tgRxwUmNWBEeA9mVB7pk-38" value="Item 1" style="text;strokeColor=none;fillColor=none;spacingLeft=4;spacingRight=4;overflow=hidden;rotatable=0;points=[[0,0.5],[1,0.5]];portConstraint=eastwest;fontSize=12;" vertex="1" parent="tgRxwUmNWBEeA9mVB7pk-37">
          <mxGeometry y="26" width="160" height="30" as="geometry" />
        </mxCell>
        <mxCell id="tgRxwUmNWBEeA9mVB7pk-39" value="Item 2" style="text;strokeColor=none;fillColor=none;spacingLeft=4;spacingRight=4;overflow=hidden;rotatable=0;points=[[0,0.5],[1,0.5]];portConstraint=eastwest;fontSize=12;" vertex="1" parent="tgRxwUmNWBEeA9mVB7pk-37">
          <mxGeometry y="56" width="160" height="30" as="geometry" />
        </mxCell>
        <mxCell id="tgRxwUmNWBEeA9mVB7pk-40" value="Item 3" style="text;strokeColor=none;fillColor=none;spacingLeft=4;spacingRight=4;overflow=hidden;rotatable=0;points=[[0,0.5],[1,0.5]];portConstraint=eastwest;fontSize=12;" vertex="1" parent="tgRxwUmNWBEeA9mVB7pk-37">
          <mxGeometry y="86" width="160" height="30" as="geometry" />
        </mxCell>
        <mxCell id="tgRxwUmNWBEeA9mVB7pk-45" style="edgeStyle=orthogonalEdgeStyle;rounded=0;orthogonalLoop=1;jettySize=auto;html=1;" edge="1" parent="tgRxwUmNWBEeA9mVB7pk-71" source="tgRxwUmNWBEeA9mVB7pk-41" target="tgRxwUmNWBEeA9mVB7pk-29">
          <mxGeometry relative="1" as="geometry">
            <Array as="points">
              <mxPoint x="80" y="160" />
              <mxPoint x="260" y="160" />
            </Array>
          </mxGeometry>
        </mxCell>
        <mxCell id="tgRxwUmNWBEeA9mVB7pk-41" value="Optician" style="swimlane;fontStyle=0;childLayout=stackLayout;horizontal=1;startSize=26;horizontalStack=0;resizeParent=1;resizeParentMax=0;resizeLast=0;collapsible=1;marginBottom=0;align=center;fontSize=14;" vertex="1" parent="tgRxwUmNWBEeA9mVB7pk-71">
          <mxGeometry y="190" width="160" height="116" as="geometry" />
        </mxCell>
        <mxCell id="tgRxwUmNWBEeA9mVB7pk-42" value="Item 1" style="text;strokeColor=none;fillColor=none;spacingLeft=4;spacingRight=4;overflow=hidden;rotatable=0;points=[[0,0.5],[1,0.5]];portConstraint=eastwest;fontSize=12;" vertex="1" parent="tgRxwUmNWBEeA9mVB7pk-41">
          <mxGeometry y="26" width="160" height="30" as="geometry" />
        </mxCell>
        <mxCell id="tgRxwUmNWBEeA9mVB7pk-43" value="Item 2" style="text;strokeColor=none;fillColor=none;spacingLeft=4;spacingRight=4;overflow=hidden;rotatable=0;points=[[0,0.5],[1,0.5]];portConstraint=eastwest;fontSize=12;" vertex="1" parent="tgRxwUmNWBEeA9mVB7pk-41">
          <mxGeometry y="56" width="160" height="30" as="geometry" />
        </mxCell>
        <mxCell id="tgRxwUmNWBEeA9mVB7pk-44" value="Item 3" style="text;strokeColor=none;fillColor=none;spacingLeft=4;spacingRight=4;overflow=hidden;rotatable=0;points=[[0,0.5],[1,0.5]];portConstraint=eastwest;fontSize=12;" vertex="1" parent="tgRxwUmNWBEeA9mVB7pk-41">
          <mxGeometry y="86" width="160" height="30" as="geometry" />
        </mxCell>
        <mxCell id="tgRxwUmNWBEeA9mVB7pk-48" value="{optional, and}" style="text;html=1;strokeColor=none;fillColor=none;align=center;verticalAlign=middle;whiteSpace=wrap;rounded=0;" vertex="1" parent="tgRxwUmNWBEeA9mVB7pk-71">
          <mxGeometry x="335" y="130" width="100" height="30" as="geometry" />
        </mxCell>
        <mxCell id="tgRxwUmNWBEeA9mVB7pk-72" value="" style="group" vertex="1" connectable="0" parent="1">
          <mxGeometry x="790" y="374" width="360" height="306" as="geometry" />
        </mxCell>
        <mxCell id="tgRxwUmNWBEeA9mVB7pk-54" value="Device" style="swimlane;fontStyle=0;childLayout=stackLayout;horizontal=1;startSize=26;horizontalStack=0;resizeParent=1;resizeParentMax=0;resizeLast=0;collapsible=1;marginBottom=0;align=center;fontSize=14;" vertex="1" parent="tgRxwUmNWBEeA9mVB7pk-72">
          <mxGeometry x="100" width="160" height="116" as="geometry" />
        </mxCell>
        <mxCell id="tgRxwUmNWBEeA9mVB7pk-55" value="Item 1" style="text;strokeColor=none;fillColor=none;spacingLeft=4;spacingRight=4;overflow=hidden;rotatable=0;points=[[0,0.5],[1,0.5]];portConstraint=eastwest;fontSize=12;" vertex="1" parent="tgRxwUmNWBEeA9mVB7pk-54">
          <mxGeometry y="26" width="160" height="30" as="geometry" />
        </mxCell>
        <mxCell id="tgRxwUmNWBEeA9mVB7pk-56" value="Item 2" style="text;strokeColor=none;fillColor=none;spacingLeft=4;spacingRight=4;overflow=hidden;rotatable=0;points=[[0,0.5],[1,0.5]];portConstraint=eastwest;fontSize=12;" vertex="1" parent="tgRxwUmNWBEeA9mVB7pk-54">
          <mxGeometry y="56" width="160" height="30" as="geometry" />
        </mxCell>
        <mxCell id="tgRxwUmNWBEeA9mVB7pk-57" value="Item 3" style="text;strokeColor=none;fillColor=none;spacingLeft=4;spacingRight=4;overflow=hidden;rotatable=0;points=[[0,0.5],[1,0.5]];portConstraint=eastwest;fontSize=12;" vertex="1" parent="tgRxwUmNWBEeA9mVB7pk-54">
          <mxGeometry y="86" width="160" height="30" as="geometry" />
        </mxCell>
        <mxCell id="tgRxwUmNWBEeA9mVB7pk-68" style="edgeStyle=orthogonalEdgeStyle;rounded=0;orthogonalLoop=1;jettySize=auto;html=1;" edge="1" parent="tgRxwUmNWBEeA9mVB7pk-72" source="tgRxwUmNWBEeA9mVB7pk-58" target="tgRxwUmNWBEeA9mVB7pk-54">
          <mxGeometry relative="1" as="geometry" />
        </mxCell>
        <mxCell id="tgRxwUmNWBEeA9mVB7pk-58" value="VisualDevice" style="swimlane;fontStyle=0;childLayout=stackLayout;horizontal=1;startSize=26;horizontalStack=0;resizeParent=1;resizeParentMax=0;resizeLast=0;collapsible=1;marginBottom=0;align=center;fontSize=14;fillColor=#f8cecc;strokeColor=#b85450;" vertex="1" parent="tgRxwUmNWBEeA9mVB7pk-72">
          <mxGeometry y="190" width="160" height="116" as="geometry" />
        </mxCell>
        <mxCell id="tgRxwUmNWBEeA9mVB7pk-59" value="Item 1" style="text;spacingLeft=4;spacingRight=4;overflow=hidden;rotatable=0;points=[[0,0.5],[1,0.5]];portConstraint=eastwest;fontSize=12;fillColor=#f8cecc;strokeColor=#b85450;" vertex="1" parent="tgRxwUmNWBEeA9mVB7pk-58">
          <mxGeometry y="26" width="160" height="30" as="geometry" />
        </mxCell>
        <mxCell id="tgRxwUmNWBEeA9mVB7pk-60" value="Item 2" style="text;spacingLeft=4;spacingRight=4;overflow=hidden;rotatable=0;points=[[0,0.5],[1,0.5]];portConstraint=eastwest;fontSize=12;fillColor=#f8cecc;strokeColor=#b85450;" vertex="1" parent="tgRxwUmNWBEeA9mVB7pk-58">
          <mxGeometry y="56" width="160" height="30" as="geometry" />
        </mxCell>
        <mxCell id="tgRxwUmNWBEeA9mVB7pk-61" value="Item 3" style="text;spacingLeft=4;spacingRight=4;overflow=hidden;rotatable=0;points=[[0,0.5],[1,0.5]];portConstraint=eastwest;fontSize=12;fillColor=#f8cecc;strokeColor=#b85450;" vertex="1" parent="tgRxwUmNWBEeA9mVB7pk-58">
          <mxGeometry y="86" width="160" height="30" as="geometry" />
        </mxCell>
        <mxCell id="tgRxwUmNWBEeA9mVB7pk-69" style="edgeStyle=orthogonalEdgeStyle;rounded=0;orthogonalLoop=1;jettySize=auto;html=1;" edge="1" parent="tgRxwUmNWBEeA9mVB7pk-72" source="tgRxwUmNWBEeA9mVB7pk-62" target="tgRxwUmNWBEeA9mVB7pk-54">
          <mxGeometry relative="1" as="geometry" />
        </mxCell>
        <mxCell id="tgRxwUmNWBEeA9mVB7pk-62" value="HearingDevice" style="swimlane;fontStyle=0;childLayout=stackLayout;horizontal=1;startSize=26;horizontalStack=0;resizeParent=1;resizeParentMax=0;resizeLast=0;collapsible=1;marginBottom=0;align=center;fontSize=14;" vertex="1" parent="tgRxwUmNWBEeA9mVB7pk-72">
          <mxGeometry x="200" y="190" width="160" height="116" as="geometry" />
        </mxCell>
        <mxCell id="tgRxwUmNWBEeA9mVB7pk-63" value="Item 1" style="text;strokeColor=none;fillColor=none;spacingLeft=4;spacingRight=4;overflow=hidden;rotatable=0;points=[[0,0.5],[1,0.5]];portConstraint=eastwest;fontSize=12;" vertex="1" parent="tgRxwUmNWBEeA9mVB7pk-62">
          <mxGeometry y="26" width="160" height="30" as="geometry" />
        </mxCell>
        <mxCell id="tgRxwUmNWBEeA9mVB7pk-64" value="Item 2" style="text;strokeColor=none;fillColor=none;spacingLeft=4;spacingRight=4;overflow=hidden;rotatable=0;points=[[0,0.5],[1,0.5]];portConstraint=eastwest;fontSize=12;" vertex="1" parent="tgRxwUmNWBEeA9mVB7pk-62">
          <mxGeometry y="56" width="160" height="30" as="geometry" />
        </mxCell>
        <mxCell id="tgRxwUmNWBEeA9mVB7pk-65" value="Item 3" style="text;strokeColor=none;fillColor=none;spacingLeft=4;spacingRight=4;overflow=hidden;rotatable=0;points=[[0,0.5],[1,0.5]];portConstraint=eastwest;fontSize=12;" vertex="1" parent="tgRxwUmNWBEeA9mVB7pk-62">
          <mxGeometry y="86" width="160" height="30" as="geometry" />
        </mxCell>
        <mxCell id="tgRxwUmNWBEeA9mVB7pk-70" value="{mandatory, or}" style="text;html=1;strokeColor=none;fillColor=none;align=center;verticalAlign=middle;whiteSpace=wrap;rounded=0;" vertex="1" parent="tgRxwUmNWBEeA9mVB7pk-72">
          <mxGeometry x="180" y="122" width="100" height="30" as="geometry" />
        </mxCell>
        <mxCell id="tgRxwUmNWBEeA9mVB7pk-73" value="Frame" style="swimlane;fontStyle=0;childLayout=stackLayout;horizontal=1;startSize=26;horizontalStack=0;resizeParent=1;resizeParentMax=0;resizeLast=0;collapsible=1;marginBottom=0;align=center;fontSize=14;fillColor=#f8cecc;strokeColor=#b85450;" vertex="1" parent="1">
          <mxGeometry x="790" y="720" width="160" height="116" as="geometry" />
        </mxCell>
        <mxCell id="tgRxwUmNWBEeA9mVB7pk-74" value="Item 1" style="text;spacingLeft=4;spacingRight=4;overflow=hidden;rotatable=0;points=[[0,0.5],[1,0.5]];portConstraint=eastwest;fontSize=12;fillColor=#f8cecc;strokeColor=#b85450;" vertex="1" parent="tgRxwUmNWBEeA9mVB7pk-73">
          <mxGeometry y="26" width="160" height="30" as="geometry" />
        </mxCell>
        <mxCell id="tgRxwUmNWBEeA9mVB7pk-75" value="Item 2" style="text;spacingLeft=4;spacingRight=4;overflow=hidden;rotatable=0;points=[[0,0.5],[1,0.5]];portConstraint=eastwest;fontSize=12;fillColor=#f8cecc;strokeColor=#b85450;" vertex="1" parent="tgRxwUmNWBEeA9mVB7pk-73">
          <mxGeometry y="56" width="160" height="30" as="geometry" />
        </mxCell>
        <mxCell id="tgRxwUmNWBEeA9mVB7pk-76" value="Item 3" style="text;spacingLeft=4;spacingRight=4;overflow=hidden;rotatable=0;points=[[0,0.5],[1,0.5]];portConstraint=eastwest;fontSize=12;fillColor=#f8cecc;strokeColor=#b85450;" vertex="1" parent="tgRxwUmNWBEeA9mVB7pk-73">
          <mxGeometry y="86" width="160" height="30" as="geometry" />
        </mxCell>
        <mxCell id="tgRxwUmNWBEeA9mVB7pk-77" value="Lense" style="swimlane;fontStyle=0;childLayout=stackLayout;horizontal=1;startSize=26;horizontalStack=0;resizeParent=1;resizeParentMax=0;resizeLast=0;collapsible=1;marginBottom=0;align=center;fontSize=14;fillColor=#f8cecc;strokeColor=#b85450;" vertex="1" parent="1">
          <mxGeometry x="800" y="890" width="160" height="116" as="geometry" />
        </mxCell>
        <mxCell id="tgRxwUmNWBEeA9mVB7pk-78" value="Item 1" style="text;spacingLeft=4;spacingRight=4;overflow=hidden;rotatable=0;points=[[0,0.5],[1,0.5]];portConstraint=eastwest;fontSize=12;fillColor=#f8cecc;strokeColor=#b85450;" vertex="1" parent="tgRxwUmNWBEeA9mVB7pk-77">
          <mxGeometry y="26" width="160" height="30" as="geometry" />
        </mxCell>
        <mxCell id="tgRxwUmNWBEeA9mVB7pk-79" value="Item 2" style="text;spacingLeft=4;spacingRight=4;overflow=hidden;rotatable=0;points=[[0,0.5],[1,0.5]];portConstraint=eastwest;fontSize=12;fillColor=#f8cecc;strokeColor=#b85450;" vertex="1" parent="tgRxwUmNWBEeA9mVB7pk-77">
          <mxGeometry y="56" width="160" height="30" as="geometry" />
        </mxCell>
        <mxCell id="tgRxwUmNWBEeA9mVB7pk-80" value="Item 3" style="text;spacingLeft=4;spacingRight=4;overflow=hidden;rotatable=0;points=[[0,0.5],[1,0.5]];portConstraint=eastwest;fontSize=12;fillColor=#f8cecc;strokeColor=#b85450;" vertex="1" parent="tgRxwUmNWBEeA9mVB7pk-77">
          <mxGeometry y="86" width="160" height="30" as="geometry" />
        </mxCell>
        <mxCell id="tgRxwUmNWBEeA9mVB7pk-82" value="Comment" style="swimlane;fontStyle=0;childLayout=stackLayout;horizontal=1;startSize=26;horizontalStack=0;resizeParent=1;resizeParentMax=0;resizeLast=0;collapsible=1;marginBottom=0;align=center;fontSize=14;" vertex="1" parent="1">
          <mxGeometry x="890" y="50" width="160" height="116" as="geometry" />
        </mxCell>
        <mxCell id="tgRxwUmNWBEeA9mVB7pk-83" value="Item 1" style="text;strokeColor=none;fillColor=none;spacingLeft=4;spacingRight=4;overflow=hidden;rotatable=0;points=[[0,0.5],[1,0.5]];portConstraint=eastwest;fontSize=12;" vertex="1" parent="tgRxwUmNWBEeA9mVB7pk-82">
          <mxGeometry y="26" width="160" height="30" as="geometry" />
        </mxCell>
        <mxCell id="tgRxwUmNWBEeA9mVB7pk-84" value="Item 2" style="text;strokeColor=none;fillColor=none;spacingLeft=4;spacingRight=4;overflow=hidden;rotatable=0;points=[[0,0.5],[1,0.5]];portConstraint=eastwest;fontSize=12;" vertex="1" parent="tgRxwUmNWBEeA9mVB7pk-82">
          <mxGeometry y="56" width="160" height="30" as="geometry" />
        </mxCell>
        <mxCell id="tgRxwUmNWBEeA9mVB7pk-85" value="Item 3" style="text;strokeColor=none;fillColor=none;spacingLeft=4;spacingRight=4;overflow=hidden;rotatable=0;points=[[0,0.5],[1,0.5]];portConstraint=eastwest;fontSize=12;" vertex="1" parent="tgRxwUmNWBEeA9mVB7pk-82">
          <mxGeometry y="86" width="160" height="30" as="geometry" />
        </mxCell>
        <mxCell id="tgRxwUmNWBEeA9mVB7pk-86" value="Prescription" style="swimlane;fontStyle=0;childLayout=stackLayout;horizontal=1;startSize=26;horizontalStack=0;resizeParent=1;resizeParentMax=0;resizeLast=0;collapsible=1;marginBottom=0;align=center;fontSize=14;" vertex="1" parent="1">
          <mxGeometry x="1160" y="60" width="160" height="116" as="geometry" />
        </mxCell>
        <mxCell id="tgRxwUmNWBEeA9mVB7pk-87" value="Item 1" style="text;strokeColor=none;fillColor=none;spacingLeft=4;spacingRight=4;overflow=hidden;rotatable=0;points=[[0,0.5],[1,0.5]];portConstraint=eastwest;fontSize=12;" vertex="1" parent="tgRxwUmNWBEeA9mVB7pk-86">
          <mxGeometry y="26" width="160" height="30" as="geometry" />
        </mxCell>
        <mxCell id="tgRxwUmNWBEeA9mVB7pk-88" value="Item 2" style="text;strokeColor=none;fillColor=none;spacingLeft=4;spacingRight=4;overflow=hidden;rotatable=0;points=[[0,0.5],[1,0.5]];portConstraint=eastwest;fontSize=12;" vertex="1" parent="tgRxwUmNWBEeA9mVB7pk-86">
          <mxGeometry y="56" width="160" height="30" as="geometry" />
        </mxCell>
        <mxCell id="tgRxwUmNWBEeA9mVB7pk-89" value="Item 3" style="text;strokeColor=none;fillColor=none;spacingLeft=4;spacingRight=4;overflow=hidden;rotatable=0;points=[[0,0.5],[1,0.5]];portConstraint=eastwest;fontSize=12;" vertex="1" parent="tgRxwUmNWBEeA9mVB7pk-86">
          <mxGeometry y="86" width="160" height="30" as="geometry" />
        </mxCell>
      </root>
    </mxGraphModel>
  </diagram>
</mxfile>
